<svg width="24" height="24" viewBox="0 0 24 24" fill="none" xmlns="http://www.w3.org/2000/svg">
<path d="M17.8182 4.21429H15.5055C15.3554 3.85999 15.0777 3.55311 14.7106 3.33571C14.3434 3.11832 13.9047 3.00106 13.4545 3H10.5455C10.0953 3.00106 9.65658 3.11832 9.28938 3.33571C8.92225 3.55311 8.64458 3.85999 8.49455 4.21429H6.18182C5.60316 4.21429 5.04821 4.40619 4.63904 4.74777C4.22987 5.08935 4 5.55264 4 6.03571V18.1786C4 18.6616 4.22987 19.1249 4.63904 19.4665C5.04821 19.8081 5.60316 20 6.18182 20H17.8182C18.3968 20 18.9518 19.8081 19.3609 19.4665C19.7701 19.1249 20 18.6616 20 18.1786V6.03571C20 5.55264 19.7701 5.08935 19.3609 4.74777C18.9518 4.40619 18.3968 4.21429 17.8182 4.21429ZM9.81818 4.82143C9.81818 4.6604 9.89484 4.50598 10.0312 4.39211C10.1676 4.27825 10.3526 4.21429 10.5455 4.21429H13.4545C13.6474 4.21429 13.8324 4.27825 13.9688 4.39211C14.1052 4.50598 14.1818 4.6604 14.1818 4.82143V5.42857H9.81818V4.82143ZM18.5455 18.1786C18.5455 18.3396 18.4688 18.494 18.3324 18.6079C18.1961 18.7217 18.0111 18.7857 17.8182 18.7857H6.18182C5.98893 18.7857 5.80395 18.7217 5.66756 18.6079C5.53117 18.494 5.45455 18.3396 5.45455 18.1786V6.03571C5.45455 5.87469 5.53117 5.72026 5.66756 5.6064C5.80395 5.49254 5.98893 5.42857 6.18182 5.42857H8.36364V6.64286H15.6364V5.42857H17.8182C18.0111 5.42857 18.1961 5.49254 18.3324 5.6064C18.4688 5.72026 18.5455 5.87469 18.5455 6.03571V18.1786Z" fill="white"/>
<path d="M16.5 9.10986C16.5 8.69565 16.1642 8.35986 15.75 8.35986H12H8.25C7.83579 8.35986 7.5 8.69565 7.5 9.10986V9.10986C7.5 9.52408 7.83579 9.85986 8.25 9.85986H15.75C16.1642 9.85986 16.5 9.52408 16.5 9.10986V9.10986Z" fill="white"/>
<path d="M16.5 12.75C16.5 12.3358 16.1642 12 15.75 12H8.25C7.83579 12 7.5 12.3358 7.5 12.75V12.75C7.5 13.1642 7.83579 13.5 8.25 13.5H15.75C16.1642 13.5 16.5 13.1642 16.5 12.75V12.75Z" fill="white"/>
<path d="M16.5 16.25C16.5 15.8358 16.1642 15.5 15.75 15.5H8.25C7.83579 15.5 7.5 15.8358 7.5 16.25V16.25C7.5 16.6642 7.83579 17 8.25 17H15.75C16.1642 17 16.5 16.6642 16.5 16.25V16.25Z" fill="white"/>
</svg>
