<svg width="24" height="24" viewBox="0 0 24 24" fill="none" xmlns="http://www.w3.org/2000/svg">
<path d="M19.5327 4.35182C19.3497 4.17646 19.1282 4.06124 18.8921 4.01853C18.656 3.97583 18.4141 4.00725 18.1925 4.10942L4.666 10.2839C4.46882 10.3772 4.30033 10.5352 4.1818 10.7377C4.06326 10.9402 4 11.1782 4 11.4218C4 11.6653 4.06326 11.9033 4.1818 12.1058C4.30033 12.3084 4.46882 12.4663 4.666 12.5597L5.53982 12.9704C5.68389 13.0399 5.84626 13.0414 5.99128 12.9745C6.13629 12.9076 6.2521 12.7777 6.31327 12.6136C6.34327 12.5318 6.35882 12.4441 6.35903 12.3554C6.35924 12.2668 6.34409 12.1789 6.31447 12.097C6.28485 12.0151 6.24133 11.9406 6.18641 11.8779C6.13149 11.8151 6.06625 11.7654 5.99444 11.7315L5.34498 11.4285L18.6353 5.36854C18.6557 5.35426 18.6792 5.34669 18.7032 5.34669C18.7272 5.34669 18.7507 5.35426 18.7711 5.36854C18.7904 5.3872 18.8049 5.4114 18.8132 5.43864C18.8215 5.46587 18.8233 5.49514 18.8183 5.52341L16.3917 18.4379C16.3837 18.4839 16.3654 18.5267 16.3385 18.5621C16.3115 18.5975 16.277 18.6243 16.2382 18.6399C16.2001 18.6571 16.1587 18.6624 16.1182 18.6553C16.0778 18.6482 16.0397 18.629 16.0079 18.5995L11.2846 14.3979L15.9076 9.07187C16.0064 8.95498 16.0647 8.80139 16.0721 8.63932C16.0794 8.47725 16.0352 8.3176 15.9475 8.18978C15.8599 8.06195 15.7347 7.97452 15.595 7.94359C15.4553 7.91266 15.3105 7.94031 15.1873 8.02146L8.40925 12.6001C8.33397 12.6389 8.26667 12.6953 8.21169 12.7656C8.15671 12.8359 8.1153 12.9187 8.0901 13.0084C8.06491 13.0981 8.05651 13.1928 8.06545 13.2865C8.07439 13.3802 8.10046 13.4707 8.14199 13.5521C8.18351 13.6335 8.23955 13.7042 8.30651 13.7594C8.37346 13.8145 8.44982 13.8531 8.53066 13.8725C8.61148 13.892 8.69502 13.8918 8.77579 13.8721C8.85662 13.8524 8.93284 13.8137 8.99968 13.7582L11.8514 11.8392L10.4639 13.4485C10.337 13.5845 10.238 13.7508 10.1741 13.9356C10.1101 14.1204 10.0829 14.319 10.0941 14.5171C10.1054 14.7154 10.155 14.9083 10.2393 15.0821C10.3237 15.2559 10.4407 15.4062 10.582 15.5224L15.3053 19.6633C15.5539 19.8821 15.8592 20.0005 16.1733 20C16.3405 19.9986 16.5063 19.9644 16.6633 19.899C16.8889 19.8066 17.0898 19.6498 17.2469 19.4435C17.4041 19.2372 17.5122 18.9883 17.5607 18.7207L19.9697 5.81967C20.0208 5.55282 20.0071 5.27513 19.9302 5.01647C19.8532 4.75782 19.7157 4.52802 19.5327 4.35182Z" fill="white"/>
</svg>
