<svg width="24" height="24" viewBox="0 0 24 24" fill="none" xmlns="http://www.w3.org/2000/svg">
<path d="M21.7847 8.691C21.7854 7.54681 21.4015 6.44488 20.7105 5.60765C20.0195 4.77042 19.0729 4.26025 18.0616 4.18009C14.0161 3.94268 9.90747 3.94268 5.88996 4.16427C3.91276 4.16427 2.15292 6.31685 2.15292 8.691C1.94903 10.9856 1.94903 13.2974 2.15292 15.5919C2.15104 16.7045 2.53935 17.7726 3.23301 18.563C3.92667 19.3534 4.86929 19.8018 5.8549 19.8101C7.8882 19.9367 9.92612 20 11.9688 20C14.0114 20 16.0377 19.9394 18.0476 19.818C19.0298 19.8161 19.9719 19.3786 20.6709 18.5999C21.3699 17.8212 21.7699 16.7637 21.7847 15.6553C22.0718 13.3452 22.0718 11.0012 21.7847 8.691ZM20.3824 15.5207C20.379 15.5523 20.379 15.5842 20.3824 15.6157C20.3806 15.9656 20.3175 16.3116 20.197 16.634C20.0765 16.9563 19.9008 17.2486 19.68 17.4941C19.4592 17.7397 19.1976 17.9337 18.9103 18.0649C18.623 18.1962 18.3155 18.2621 18.0056 18.2589C13.9698 18.4964 9.92577 18.4964 5.88996 18.2589C5.57758 18.2559 5.26887 18.1828 4.98177 18.0438C4.69468 17.9048 4.43494 17.7027 4.21767 17.4494C4.0004 17.1961 3.82994 16.8965 3.7162 16.5681C3.60247 16.2397 3.54773 15.889 3.55518 15.5365C3.35507 13.3079 3.35507 11.0622 3.55518 8.83346C3.55834 8.80457 3.55834 8.77537 3.55518 8.7464C3.54975 8.0036 3.78937 7.2851 4.22741 6.73065C4.66545 6.17625 5.27058 5.82563 5.92501 5.74705C7.93027 5.64417 9.94953 5.59669 11.9688 5.59669C13.9881 5.59669 16.0073 5.64417 18.0126 5.74705H18.0476C19.2466 5.74705 20.3824 7.20319 20.3824 8.7464C20.3789 8.78589 20.3789 8.8257 20.3824 8.86511C20.6569 11.0676 20.6569 13.3025 20.3824 15.5049V15.5207Z" fill="white"/>
<path d="M15.5926 11.6324L10.2376 8.87244C10.1499 8.82714 10.0542 8.79954 9.95592 8.79122C9.85759 8.78297 9.75859 8.79407 9.66454 8.82399C9.57049 8.85399 9.48334 8.90214 9.40789 8.96574C9.33252 9.02942 9.27042 9.10727 9.22512 9.19494C9.17974 9.28262 9.15222 9.37832 9.14389 9.47664C9.13557 9.57497 9.14667 9.67397 9.17667 9.76802C9.20659 9.86199 9.25474 9.94922 9.31842 10.0246C9.38202 10.1 9.45994 10.1621 9.54762 10.2074L13.6201 12.2999L10.6201 13.8524V12.2999C10.6201 12.101 10.5411 11.9103 10.4004 11.7696C10.2597 11.629 10.069 11.5499 9.87012 11.5499C9.67114 11.5499 9.48042 11.629 9.33972 11.7696C9.19909 11.9103 9.12012 12.101 9.12012 12.2999V15.0899C9.12012 15.2888 9.19909 15.4796 9.33972 15.6203C9.48042 15.761 9.67114 15.8399 9.87012 15.8399C9.99004 15.8405 10.1083 15.8121 10.2151 15.7574L15.5701 12.9674C15.6924 12.9041 15.7948 12.8083 15.8663 12.6905C15.9378 12.5728 15.9753 12.4376 15.9751 12.2999C15.9775 12.1645 15.9433 12.031 15.876 11.9134C15.8086 11.7959 15.7107 11.6988 15.5926 11.6324Z" fill="white"/>
</svg>
